/* XPM */
static char *result[] = {
/* columns rows colors chars-per-pixel */
"32 32 146 2 ",
"   c black",
".  c #010101",
"X  c #020202",
"o  c gray1",
"O  c #040404",
"+  c gray2",
"@  c #060606",
"#  c #070707",
"$  c gray3",
"%  c #090909",
"&  c #0A0A09",
"*  c gray4",
"=  c #0B0B0B",
"-  c #0C0C0C",
";  c gray5",
":  c #0E0E0E",
">  c #0F0F0E",
",  c gray6",
"<  c #10100F",
"1  c #101010",
"2  c #111110",
"3  c #111111",
"4  c gray7",
"5  c #131313",
"6  c gray8",
"7  c #151514",
"8  c #151515",
"9  c #161616",
"0  c #171716",
"q  c #181817",
"w  c #181818",
"e  c #191918",
"r  c #191919",
"t  c #1A1918",
"y  c #1A1919",
"u  c #1A1A19",
"i  c #1B1B1A",
"p  c #1B1B1B",
"a  c #1D1D1B",
"s  c gray11",
"d  c #1D1D1C",
"f  c #1D1D1D",
"g  c #1E1D1C",
"h  c #1F1E1D",
"j  c #1E1E1E",
"k  c #1F1F1E",
"l  c gray12",
"z  c #20201E",
"x  c #20201F",
"c  c #21211F",
"v  c #202020",
"b  c #212120",
"n  c gray13",
"m  c #222220",
"M  c #222221",
"N  c #232221",
"B  c #232323",
"V  c gray14",
"C  c #252525",
"Z  c #272727",
"A  c #282828",
"S  c gray16",
"D  c #2A2A2A",
"F  c gray17",
"G  c #2C2C2C",
"H  c #2D2D2D",
"J  c gray19",
"K  c #313131",
"L  c #323232",
"P  c gray20",
"I  c #343434",
"U  c gray21",
"Y  c #373737",
"T  c gray22",
"R  c #393939",
"E  c gray23",
"W  c #3C3C3C",
"Q  c gray24",
"!  c #3E3E3E",
"~  c #3F3F3F",
"^  c #414141",
"/  c gray26",
"(  c #434343",
")  c #444444",
"_  c gray27",
"`  c #484848",
"'  c #494949",
"]  c gray29",
"[  c #4B4B4B",
"{  c #4C4C4C",
"}  c gray31",
"|  c #515151",
" . c gray32",
".. c #535353",
"X. c gray33",
"o. c #555554",
"O. c #565656",
"+. c #575656",
"@. c gray34",
"#. c gray35",
"$. c #5A5A5A",
"%. c #5B5B5B",
"&. c #5D5D5D",
"*. c #606060",
"=. c #646464",
"-. c #676767",
";. c #686868",
":. c gray42",
">. c #6D6D6D",
",. c gray43",
"<. c #6F6F6F",
"1. c gray44",
"2. c gray45",
"3. c gray50",
"4. c #838383",
"5. c gray54",
"6. c gray56",
"7. c gray57",
"8. c #979797",
"9. c #989898",
"0. c #A0A0A0",
"q. c gray63",
"w. c #A7A7A7",
"e. c #ACACAC",
"r. c gray68",
"t. c #B4B4B4",
"y. c gray71",
"u. c #B7B7B7",
"i. c gray72",
"p. c #B9B9B9",
"a. c gray75",
"s. c gray76",
"d. c #D0D0D0",
"f. c #DADADA",
"g. c gainsboro",
"h. c gray87",
"j. c #DFDFDF",
"k. c #E6E6E6",
"l. c gray93",
"z. c #F4F4F4",
"x. c gray96",
"c. c #FBFBFB",
"v. c gray99",
"b. c #FEFEFE",
"n. c white",
"m. c None",
/* pixels */
"m.m.m.m.m.m.m.m.m.m.m.m.m.m.m.m.m.m.m.m.m.m.m.m.m.m.m.m.m.m.m.m.",
"m.m.m.m.m.m.m.m.m.m.m.X . $ l v B p - . . m.m.m.m.m.m.m.m.m.m.m.",
"m.m.m.m.m.m.m.m.m..     G 2.$.-.{ ~ <.]     . m.m.m.m.m.m.m.m.m.",
"m.m.m.m.m.m.m.X   ; ,   % 3 + O O + = 5     s   . m.m.m.m.m.m.m.",
"m.m.m.m.m.m.O ;     + @ % # * = = * # $ + O       @ m.m.m.m.m.m.",
"m.m.m.m.m.+ #.{ o @ $ ; ; 8 7 3 3 ; , : : # + o S &.6 m.m.m.m.m.",
"m.m.m.m.* ) ^ * # - : ; : w k - - ; : : , , ; + O ( ;.* m.m.m.m.",
"m.m.m.X | { # @ : : ; : : : : 4 4 , ; ; ; ; , : @ + Y { X m.m.m.",
"m.m.m.K -.1 @ : N x g h m : = 4 4 = , : , ; ; k 3 @ $ ' W . m.m.",
"m.m.@ E A # ; : : : ; : : ; , - - : ; : ; , ; d > ; @ p $.. m.m.",
"m.m.$ U @ $ ; ; : ; : : : : ; 3 3 ; : : ; : , i 1 ; % +     . m.",
"m.X     @ : ; : [ h.h.h.h.h.5., 1 9 8.0.q.q.0.7.4 : ; #       m.",
"m..   O # : : : ; s.n.n.n.n.c.I - :.u.u.u.u.u.o.; ; 1 # +     m.",
"m.    + * - , ; : T c.n.n.n.n.a.D t.u.u.u.u.6.: , ; * @ #     X ",
"m.    + = 1 - , - - 9.n.n.n.n.n.i.u.u.u.u.y.G 1 = ; * ; - = $ . ",
"m.    + * - 1 % = , l l.n.n.n.n.x.p.u.u.u.1.1 - ; = : , u r = . ",
"m.    + * - * * r ; = >.n.n.n.n.n.f.u.u.r.w 1 = % * = = u t $ . ",
"m.    + = 1 $ = 9 1 , 3 d.n.n.n.n.v.a.u.X.: - + e , , , 0 9 = . ",
"m.    + = - , = * * - - _ b.n.n.n.n.k.9.1 ; : * - - - - - - % X ",
"m.@ I ; # : : : d % = y = w.n.n.n.n.n.~ : ; : - - = * * * * # m.",
"m.O =.F # : ; , a : - 1 : Z z.n.n.n.e.; : : : ; = % - @ O O o m.",
"m.m.w } @ $ ; , d ; : : : : 3.n.n.x.S : : : : : & o % @ R s . m.",
"m.m.1 >.V # ; : z ; ; : 8 : 6 g.n.4.; : ; : ; < M - # r ,.n m.m.",
"m.m.m./ *., @ , b : : ; 9 , - +.j.6 4 c j q 7 q : @ $ @.O.. m.m.",
"m.m.m.. #...# @ : : ; : : - 3 , L 3 ; : 4 q 7 2 # + Q ;.= m.m.m.",
"m.m.m.m.3 :.r + # ; ; : : : ; * * - , : ; ; - @ + W :.r m.m.m.m.",
"m.m.m.m.m.X     o @ $ ; : ; , - - , ; ; ; $ @ o   J f X m.m.m.m.",
"m.m.m.m.m.m.        + @ $ $ = $ $ = % $ + +         X m.m.m.m.m.",
"m.m.m.m.m.m.m..       Z 8 @ + @ @ + + * w o     . m.m.m.m.m.m.m.",
"m.m.m.m.m.m.m.m.m..   X.{  .%./ U ` *.| U S   X m.m.m.m.m.m.m.m.",
"m.m.m.m.m.m.m.m.m.m.m.. = C L D P ! H 6 + m.m.m.m.m.m.m.m.m.m.m.",
"m.m.m.m.m.m.m.m.m.m.m.m.m.m.m.m.m.m.m.m.m.m.m.m.m.m.m.m.m.m.m.m."
};
