/* XPM */
static char *result[] = {
/* columns rows colors chars-per-pixel */
"128 128 44 1 ",
"  c #010101",
". c #0A0A07",
"X c #0C0C0C",
"o c #10100F",
"O c #141414",
"+ c #181715",
"@ c #191916",
"# c #1A1A19",
"$ c #201F1D",
"% c #21211E",
"& c #242423",
"* c #282724",
"= c #292925",
"- c #2C2C2B",
"; c #31312E",
": c #353535",
"> c #3C3C3C",
", c #444444",
"< c #4C4C4C",
"1 c #50504E",
"2 c #535353",
"3 c #5C5C5C",
"4 c #636363",
"5 c #6C6C6C",
"6 c #70706F",
"7 c #747474",
"8 c #7B7B7B",
"9 c #848484",
"0 c #8C8C8C",
"q c #939393",
"w c #9A9A9A",
"e c #A3A3A3",
"r c #AAAAAA",
"t c #B7B7B7",
"y c #B8B8B8",
"u c #C3C3C3",
"i c #CDCDCD",
"p c #D5D5D5",
"a c #DCDCDC",
"s c #E3E3E3",
"d c #EAEAEA",
"f c #F4F4F4",
"g c #FFFFFF",
"h c None",
/* pixels */
"hhhhhhhhhhhhhhhhhhhhhhhhhhhhhhhhhhhhhhhhhhhhhhhhhhhhhhhhhhhhhhhhhhhhhhhhhhhhhhhhhhhhhhhhhhhhhhhhhhhhhhhhhhhhhhhhhhhhhhhhhhhhhhhh",
"hhhhhhhhhhhhhhhhhhhhhhhhhhhhhhhhhhhhhhhhhhhhhhhhhhhhhhhhhhhhhhhhhhhhhhhhhhhhhhhhhhhhhhhhhhhhhhhhhhhhhhhhhhhhhhhhhhhhhhhhhhhhhhhh",
"hhhhhhhhhhhhhhhhhhhhhhhhhhhhhhhhhhhhhhhhhhhhhhhhhhhhhhhhhhhhhhhhhhhhhhhhhhhhhhhhhhhhhhhhhhhhhhhhhhhhhhhhhhhhhhhhhhhhhhhhhhhhhhhh",
"hhhhhhhhhhhhhhhhhhhhhhhhhhhhhhhhhhhhhhhhhhhhhhhhhhhhhhhh .. .       . ...hhhhhhhhhhhhhhhhhhhhhhhhhhhhhhhhhhhhhhhhhhhhhhhhhhhhhhh",
"hhhhhhhhhhhhhhhhhhhhhhhhhhhhhhhhhhhhhhhhhhhhhhhhhhh..                        ..hhhhhhhhhhhhhhhhhhhhhhhhhhhhhhhhhhhhhhhhhhhhhhhhh",
"hhhhhhhhhhhhhhhhhhhhhhhhhhhhhhhhhhhhhhhhhhhhhhh.                                  hhhhhhhhhhhhhhhhhhhhhhhhhhhhhhhhhhhhhhhhhhhhhh",
"hhhhhhhhhhhhhhhhhhhhhhhhhhhhhhhhhhhhhhhhhhhh.              O# -#:O:O#X              ..hhhhhhhhhhhhhhhhhhhhhhhhhhhhhhhhhhhhhhhhhh",
"hhhhhhhhhhhhhhhhhhhhhhhhhhhhhhhhhhhhhhhhh.            -27,9e0:0<q,q>408#<<&            .hhhhhhhhhhhhhhhhhhhhhhhhhhhhhhhhhhhhhhhh",
"hhhhhhhhhhhhhhhhhhhhhhhhhhhhhhhhhhhhhhh           O39>782;q2w<q20,w--8.,q0q-72-           .hhhhhhhhhhhhhhhhhhhhhhhhhhhhhhhhhhhhh",
"hhhhhhhhhhhhhhhhhhhhhhhhhhhhhhhhhhhhh             <087300<42e<0<0,0#>q 2e97<957             .hhhhhhhhhhhhhhhhhhhhhhhhhhhhhhhhhhh",
"hhhhhhhhhhhhhhhhhhhhhhhhhhhhhhhhhhh               >qq0,w3<<7q30qq,wO,w <592<q9O               .hhhhhhhhhhhhhhhhhhhhhhhhhhhhhhhhh",
"hhhhhhhhhhhhhhhhhhhhhhhhhhhhhhhhh                 Oq20,906.,5>X#o.& &, ,<w242q:                 hhhhhhhhhhhhhhhhhhhhhhhhhhhhhhhh",
"hhhhhhhhhhhhhhhhhhhhhhhhhhhhhhh.                   9,<@.                 .O,99X                   hhhhhhhhhhhhhhhhhhhhhhhhhhhhhh",
"hhhhhhhhhhhhhhhhhhhhhhhhhhhhhh         ..          .                                      .        .hhhhhhhhhhhhhhhhhhhhhhhhhhhh",
"hhhhhhhhhhhhhhhhhhhhhhhhhhhh.          79X              XO@@OOXOXOOOOO@o.                48o         hhhhhhhhhhhhhhhhhhhhhhhhhhh",
"hhhhhhhhhhhhhhhhhhhhhhhhhhh            23          .OOOO.               XOOOO            27           hhhhhhhhhhhhhhhhhhhhhhhhhh",
"hhhhhhhhhhhhhhhhhhhhhhhhhh                      OOO.                         OOO.                      .hhhhhhhhhhhhhhhhhhhhhhhh",
"hhhhhhhhhhhhhhhhhhhhhhhh.                    oOO         .O@#@OOOOO#@O.         .OO.                     hhhhhhhhhhhhhhhhhhhhhhh",
"hhhhhhhhhhhhhhhhhhhhhhh     X              OO.      .@OOO.     ..     .OOo#o       XOX                    hhhhhhhhhhhhhhhhhhhhhh",
"hhhhhhhhhhhhhhhhhhhhhh.    -9,           #O      OO@.  O#Oo@#OooXoO#@Oo@@X  OOO.     .O.            ,X     hhhhhhhhhhhhhhhhhhhhh",
"hhhhhhhhhhhhhhhhhhhhh     #q3<=        OO     X@O  @OOO   o@##OOOO@##O.  X#O#X XO@     .O.         >w,-     hhhhhhhhhhhhhhhhhhhh",
"hhhhhhhhhhhhhhhhhhhh    .<:9qq9.     O@     OO. @OO  OOO@o     .      X@O##X X##X OO.    .O       :q<79o     hhhhhhhhhhhhhhhhhhh",
"hhhhhhhhhhhhhhhhhhh.   X7q0:,2w#    #.    OO X@O .@OO O&-&o@##OOOOO##OO@O  X##O X@@ XO.    oX     3770>02     hhhhhhhhhhhhhhhhhh",
"hhhhhhhhhhhhhhhhhh    O#w5w7,9=   oO    OO O#. @OX X#O-::-XO##OOO@##@o   o@#O  #@X ## XO    .O    -q8>8894     hhhhhhhhhhhhhhhhh",
"hhhhhhhhhhhhhhhhh    @8&,q492.   #X   X# X@X ## X@#X .=::=.           o#OOO  @OO o#o ## oO    OX    O900<,,     hhhhhhhhhhhhhhhh",
"hhhhhhhhhhhhhhhh.   O8w: 2q>   .#    OX.#X #O o#X o@@XX$&:XO##OOOO##@oO#X  OO@ .@# X#o #o #X   .X   O882,504     hhhhhhhhhhhhhhh",
"hhhhhhhhhhhhhhhh   .o&2q, :   XO    # OO #O O#  @@  @O#:::OO###OO@##@X   @O#X o@O O# o#XX# oO   .O   .8>7q90:    .hhhhhhhhhhhhhh",
"hhhhhhhhhhhhhhh    8w: ,q$   OX   OO #.X# X# X#o OOO  #:::O           O#o#. XO#  #O O# O# #o @    #    38608::    hhhhhhhhhhhhhh",
"hhhhhhhhhhhhhh    7948, &   OX   #XX# Oo #X.@X @#  @Oo  o#oO##@OO@##@o#@X XOOX O#X @o @o #XX# OX   #   .,q2>w7X    hhhhhhhhhhhhh",
"hhhhhhhhhhhhh.   ::0r3q:   O.   $ OoX# oO Oo #@ oOO X@O#   o##@@O@##O.  X#OO .O@ X@X @XX$ OO # o.   #   X>4w>.9X    hhhhhhhhhhhh",
"hhhhhhhhhhhhh   -q<:78,   O.   # #Xoo #XX# OO o#X @@X X#o#o          X@O@@  #OX OO o# XO OoX# #XXo   O   O8- ,w9    .hhhhhhhhhhh",
"hhhhhhhhhhhh   X9595>2.  .X   # # oXX# Oo #XX#X #O XO#. X#Oo###O@###Oo#o  @O@ XOO OO @O #XXOX# #XoX   O    .70>:#    hhhhhhhhhhh",
"hhhhhhhhhhh.   .3qq<0X  .O   # $ O&:%.#=:O #&;@O @@. Oo#X  X###@O###O   OOO. ##  Oo OXX# XX.# #.@XXX   O   ,9= :8&    hhhhhhhhhh",
"hhhhhhhhhhh   :w5-0w-   @   # # #&::##-::#$-::+O&&:$@  #O@@          o#o#X XO# O#XX# XO @X.O :-% O.OX  .X    .8w88    .hhhhhhhhh",
"hhhhhhhhhh.  X9709>:   @   O #.O#::%o-:;#X-:;$@#:::@OOO  @#oO##@@@##oO#. X@@X O@ ## OO #.oo.#-:;& # O   X.   87000.    hhhhhhhhh",
"hhhhhhhhhh   -8q084   O.  O.oXoXO-#OX#$$.o#$#..$:&## X#OO   O##@O###X  X#OO X@o OO #XX# oXX@ #-:-# # @   O   -<q7:<.   .hhhhhhhh",
"hhhhhhhhh   &q2,0q-  .O  .OXooXXoXoXO # OXXO OX #O oOo X#O#X         O#OO  ## X#X #XO# #XXXXO #-$ # # O   O   5>&qq2    hhhhhhhh",
"hhhhhhhhh    ,00<>   #   @ @ OXO.OX# # #.oo.@ o# o#X @@. X#oO##@@##@oO@  OOO o# o# oO $ OXXX.##@ OXO.O.X  ..   0<q<qo   .hhhhhhh",
"hhhhhhhh      .<9X  O.  O @ # # # # # # OXXo #XX#XX@O OO@   o###@@#@.  OO# .#O OO #XXO $ oXXX;:%oXooXO.O   O   380<:     hhhhhhh",
"hhhhhhhh   2; .7&   O  XoO.OX# # # # #.# XXX$ OO #X O#  OO#o        X#OOX OOX #o OXoO $ $XoXX%::#XO @ # O  .X  X6<.      .hhhhhh",
"hhhhhhh   .5q940   O   @ OXOoX# # # # @ OXoO $ OO OO oOO  @Oo#@@@@#Oo#X X#O X#XX# Oo # # $XOXo&::O # #.oXX  O             hhhhhh",
"hhhhhhh     #3q,   O  o.# # OXooXOXO.O.o ooX# #XX@ oO. @#o  XO#@O@#O  X#OX #@ oO #XX# # # # # O## # OXXO #   O            hhhhhh",
"hhhhhh.       X.  O   O.oO # # #XoXXXXO.OoX# # OX.#. #O XO#OX       o#oO XOo Oo #XXo # # # $ ##@ OXoO @ # o  O             hhhhh",
"hhhhhh           .O  O.O OXoO # # OXoXXXOXO # # oO OO O#X XOo@#@@##OO#  OOXX#XX# #XXOX# # # #->$oo.O # Oo.@   O            hhhhh",
"hhhhhh           @   #XX# # OXXO #79797979798978889879878<. XO@@@#OX  OOO24324334243433333334467> # OXX@ # o  @            .hhhh",
"hhhhh.           O  O # OoX# #.ooXrggggggggggggggggggggggd@@X      XOOOX5ytttttyyttttttttytyyyyr=OXoO # OoXO   o            hhhh",
"hhhhh           o.  #.oO O Oo.# #X&fgggggggggggggggggggggg0OOO@@@#@oOX &tttttttttttyttytytyyyyy3Oo O OXXO OXX  O            hhhh",
"hhhhh           O  XXO #oX# OXoO # 9ggggggggggggggggggggggg% o@@O#OX .#0tyytytyyttyttyyttytttywX# #XoO #.oO O  O            .hhh",
"hhhh.           O  O #O.# OoXO #XXO sggggggggggggggggggggggyO.     X#O,yyttyyyyytttyyttttyytyy1# OO @ Oo.O OO   O           .hhh",
"hhhh           O.  @O O OO # OO @ oo1ggggggggggggggggggggggg2O#OO#@OO wyyytttytttyttyyytttyty0:=X# #XXO OoXO O  O            hhh",
"hhhh           O  ..O OO #Xo# #XXO #XyggggggggggggggggggggggpXOOO#o  4tttyyyytyytyttyttyyytyr::&# oO #XXO OO.o  O            hhh",
"hhhh           O  # #@ O oO OXXO @o.@&fgggggggggggggggggggggg8.    O=tyytttyytttyyytytyytttt3#XO# # oO @XX@@O@   O            hh",
"hhh           .X  OX.O OO #XX# ## # OO0ggggggggggggggggggggggf-O@@@O8ttytttytyyttytttttttyte#oXO #O OXXO O   .X  O           .hh",
"hhh.          O   @# @O O.X# OO O oO @OsggggggggggggggggggggggrOOOX-ttyyyyyyttyytttyyttyttt,O @XXO @O #XXoX   #  O            hh",
"hhh           O  o O XO OO OXXO O# @XX@3ggggggggggggggggggggggg:  Xwtttytytytttytttytyttyy0OXo# @O O.X# @ #.  o  O.           hh",
"hhh           O  # ## @oX# o@ OO OXXO Oouggggggggggggggggggggggp##2tttytyttytttytyyttytytt-O OXXO @# @O XX #  #oX#.           hh",
"hhh           O  O OO #O @o O.XO @O @o.@:ggggggggggggggggggggggg5#rtytyyttyyyyyttyyyytyyt5OXoO OO @XXO O OX #  X..             h",
"hhh          .O  OX O XO O@ OO OX.O  & Oowggggggggggggggggggggggd8ttyttttyyttyyyyytyyytyr#O OXXO oO OO oo @ .#OOOOOOOOOOOOO    h",
"hh.          ..  @# #O OoXO O@ ## oX  XX@Ofggggggggggggggggggggggatttttyyyttytyttttytyyy<OXX# O# ## # # OX #      .    . .    .h",
"hh           O   O# ## #O Oo.O oO. OX X#o 7ggggggggggggggggggggggguytytytyttttttytytyttqoO OO OO OX # Xo #  @O#OO@OO#O+OOOO   .h",
"hh.          O  .XO OO @O OO OO  @  @OOOOoOaggggggggggggggggggggggdyyttyttttttttytyttty-#O OX OXXo o # oX #OOOOOOoOoOOOOOOO   .h",
"hh           O  ..o Xo OO @O O #  #        ,gggggggggggggggggggggggityyttyytytyttttttt0 OoX#XXO o@ # Xo #        o####.       .h",
"hh.          O  X O.Xo oO OO #  #  @@@OO##OOrggggggggggggggggggggggftttytyyyyytyytytyt# OXXO.o@ O# .@ O. ##O#OOO@&::>:&OOOO    h",
"hh.          O  X oX oXXO O#  #  #OOoooOoooO-gggggggggggggggggggggggayytytyytyyyytttt3XXO XO O# # # XX #ooOoOooOo@$&#%OXOOX    h",
"hh.          O  o oX o.XO o.#  #  X X   X    8gggggggggggggggggggggggyyyytytttytttyteoX O oO.O# @ .O @    X  X X O$$$$X.       h",
"hh.          O  o XXXo XO #  #  #OOOOO#OOO#O@Oaggggggggggggggggggggggsyyttyttttytttt:OXXOXXO o#  O O  @@OOOOOOOOO&::::&OO#O    h",
"hh           O  X o Xo OO X# .#OO&&$OOOOOoOooO3gggggggggggggggggggggggutytyttyyytttq #O #oXO.X.O O  #OooOOoOOOOOOO$$#$OOooo    h",
"hh           O  XoO OO OO   #   $:::&      X  Xyggggggggggggggggggggggftytytttytttt: ## #O OX. O  #   X  X       o####X  X    Xh",
"hh.          O   O# ## #O    @OO&:::&OOOOOOOOOO:gggggggggggggggggggggggpyttytyyttt5OXXO oO OO   O XOOOOOOOOOOOOOO&:::>&OOOO   .h",
"hh.          ..  ## #O @o.   XXoXoXXoOooOooooOoXqgggggggggggggggggggggggyttttyyttrXO# #o OXO@   oOoooXoooOXooXoXo#$$$$OooX.   .h",
"hhh          .O  Oo O..O O .#X  X X   X  X    X Odggggggggggggggggggggggsyttyyttt<# o X@ OO O    $$$X   X    X X  X .  ..      h",
"hhh           O  O oO OO OXO  o#OOOOOOOOOOOOOOOOO5ggggggggggggggggggggggguyytyttw O O# OoXO O   #:::#OO#OOOOOOOOOOOOOOOOOOO   .h",
"hhh           O  # ## @oXO oXOX  XXXXoXoXXooooXX.Xiggggggggggggggggggggggdtttttt:XX# #XXO OO   #.X##ooooooXoXXXXXXXooooooXX   hh",
"hhh           O  O O..O oO @o  oOXX .   X     X  .>gggggggggggggggggggggggpytty8 O #O @ #O # .#  #X      X  X  X X      . .   hh",
"hhh           O   O@ #O #XX# OOo  XOOOOOoOOoOOOoOOOeggggggggggggggggggggggfyyytOOX# #.oO # oX@ X@ XOOOOOOOOOOOOOOOOOOOOOOOo   hh",
"hhh.          .X  OO O OO OoXO O #o    XXXXXooXXXXX&fggggggggggggggggggggggayy2.oXoO # #XX@ @ oO oo XXXXXXXoXXXXXoXXXoXoXXX  .hh",
"hhh.           O  @ #@ #XX@ Oo @ =.   ooX XX . X ...7ggggggggggggggggggggggguw.O # OoX# # OoXOX @X #X.X  XX X X XX XX X  ..  .hh",
"hhhh        .  O  o O OO #XX# #X&:=  @X  XOo#$#OoooOOpggggggggggggggggggggggd:# # # # OXXO # o #. #  OoXOooooOoooooooooOOOX   hh",
"hhhh    O,4q<  O   ## O.oO OXX# #::X@.  oo .-:&  XX. ,ggggggggggggggggggggggy# # # # # @XooX# #  # X# .XXXXXXXXXXXXXXXXX.X.  hhh",
"hhhh.  <w09<:   O  O OO # OO @ OO%:&@  OX ##-:$# OOXO tggggggggggggggggggggf: # O.OX# # # O.ooXXO oO OoX X XX  X X X X .. .  hhh",
"hhhh   #,:28wO  O  X.O @o.O OoX# #%#oXoo  # &## #XXo #-gggggggggggggggggggg9.# #XoXoXoXO # # OXo Oo @. OoOoOXOXOOoOoOXOOXOo .hhh",
"hhhhh   qqw3,$  o.  #XX@ @Xo@ O ##X+ # # # # # # OXX# X0gggggggggggggggggga#O # OXXoXoXoXXOX# # @X # .#   #X                hhhh",
"hhhhh   :>>4w7   O  @ @ oO # @X@:;# # # OXOX# $ #XX# o#Xaggggggggggggggggg4 XO #XooXOXO OXOooOX# .# oO   ..#                hhhh",
"hhhhh.  #w00<;#  O   OO.# OXoO #-:*O.OXoXoXoX# # oO #O O4gggggggggggggggguX#XX# oXXO # # # # OXXXO oo    # O  @            .hhhh",
"hhhhhh   2&  83   O  O # OoXO # %::#XOXoXoXXo.# OXX#X O# uggggggggggggggg,o #o # oO # # # $ # # O @X    .o@   O            hhhhh",
"hhhhhh.      <q.  #  .OXX# # @Xoo%=.O.@.OXooXO #XX# oOX O,ggggggggggggggw OO o@ #XX# $ # O # # $ #.     @ O  O   ,<X       hhhhh",
"hhhhhhh    -4wq=  .O  O O OXoXXOO$ + @ # OXXO # OO OO XO@ wggggggggggggf$O X#.X# OO # # OXOX#XO @      o.@   @   3qq4-    .hhhhh",
"hhhhhhh   300<:4.  O   #XooXOX#O:-# O @ #XOXX# #o #o #@X o$fggggggggggg4 O#X Oo #XoO $ #XoXoXoXoo+     O.o  O   28,2q0O   hhhhhh",
"hhhhhhh.  #,>308&   @  XXO # @.#::&# # # #Xoo #XX#..OO X@@O4ggggggggggpOO .@O O@ OX.# #XooXOXoXO-:=#. @ O   O  .,7q904    hhhhhh",
"hhhhhhhh   40q030X  @   # # @.O.#::@O # # OoXO OO o#X O@o  oiggggggggg>.@Oo O@ X# oO $ OXXO OXO$::;XOXXO.  O   2q4>70#   hhhhhhh",
"hhhhhhhh.  #,3q0<.   @   #XoXoXXo##OXO # #.X# #o #O.o@O  #OO2ggggggggr#X .@O .OX #XX# #XooXO # $::X# O.O  .X  X:<qqq4    hhhhhhh",
"hhhhhhhhh   5q<&7w&  Xo  XXoXo.O=#XXoX# # oo #XX#$::@  #O#X  eggggggf#OOOo XOo @O #X # OoXO # # #X# # @   #   ,q8-27O   hhhhhhhh",
"hhhhhhhhh.  #-3q979   O   @ #.O%::#OXo # #XX# o# #:: OO#  .O#=fggggg9X  o@#  ## O# OO #Xoo # # # @ O @   @   ;7,905#    hhhhhhhh",
"hhhhhhhhhh   -q3<q9&   @   # # #=::#XX# # oO OO O&$#@#  o#o##o9ggggs#OO#  oO&-:$XX#$o# OXX# $ # @.OXOX  o.  .,0q<8q.   hhhhhhhhh",
"hhhhhhhhhh.  .9qq3-4-  .@   # # #=:+oO # Oo #X #o O@o X@O#    Xaggg<  O#O# ;:::OO&::$ $&$o $=:XOXXXoX  .O   49,3wq,    hhhhhhhhh",
"hhhhhhhhhhh   &0;:8e9X  Xo   # # #XOoX# #XX# o# .OO X##O  o##oX6ggtO#O  .#O=-&#O$::-$#;::o#-::$XooXo   @   ::4q787    hhhhhhhhhh",
"hhhhhhhhhhhh    7q&2q>   OX  .O $ #.oO #.oO O@ o#X #Oo  ##O##XX:uf-O#@o#X  @OX ##;$#X::-#o-:-&.oXXO   #   .6q>:00#   .hhhhhhhhhh",
"hhhhhhhhhhhh.   897q<<6   O.  .# # OX.# Oo #o @O XO@  #O#o    X$,0    X@O@o X#@ X@X @&$# o#&$ oXoo   #   X94700-     hhhhhhhhhhh",
"hhhhhhhhhhhhh   O0q-4w2>   O.   # #.X# #X #XX@X @#X #O#   O#@oXoXoXo#@X  O@#X OOX @O OO #XX# @.Xo   #   .<>0w495    hhhhhhhhhhhh",
"hhhhhhhhhhhhhh    -8q>7q#   O.   # Oo #.o# o# X#o XO#  o#o@#OX    Xo##o#@  oO@ X@O o@ oO @o @ OX   #    >08X8w:.   .hhhhhhhhhhhh",
"hhhhhhhhhhhhhh.   Oq580>9<   O.   OXX@ OO OO O@  #OX o#o#X    XooXX    O@o@  @Oo OO X#XX@ oO #.   #    39306-7#    hhhhhhhhhhhhh",
"hhhhhhhhhhhhhhh    3q0>09#    OX   XO @o #o #O o@o X@OO   ##Oooooooo##o  X#OO  @@ X#o Oo #XXO    #    3:90890.    hhhhhhhhhhhhhh",
"hhhhhhhhhhhhhhhh    4q00#      X@    #..# o#X ##  #@o  O#O##OX     o@#oO#X  @Oo o#X @O OO OX   .O    :80=49>:    hhhhhhhhhhhhhhh",
"hhhhhhhhhhhhhhhhh    40#        .#    OO O# X#X O#O  OO#O     XoooX    X#o#o X@@. O# o@ X@    oX    20>80-9,    .hhhhhhhhhhhhhhh",
"hhhhhhhhhhhhhhhhhh    O           OX    #o O@ .@#  #O@.  X@#OooOooOOO#O   @O#X OOo o#X #.    O.      80>90O     hhhhhhhhhhhhhhhh",
"hhhhhhhhhhhhhhhhhh.                X#    .#o O@X OO@. .@OO#OXX     XO#OO#o  OO#  O#  #o    XO        X99:,     hhhhhhhhhhhhhhhhh",
"hhhhhhhhhhhhhhhhhhh.                 OO    .@O .@@X X#O#o    XooOXX    X@OOO  O@O X#O    .O.          @9>     hhhhhhhhhhhhhhhhhh",
"hhhhhhhhhhhhhhhhhhhh.                 .OX     OOX X@OO   o##OooooOoO@#OX  X@OO  #OX     OO             .    .hhhhhhhhhhhhhhhhhhh",
"hhhhhhhhhhhhhhhhhhhhh.                  XOX     XOOo  X#OO@Oo.     Xo#OOOO. .OOO      OO                    hhhhhhhhhhhhhhhhhhhh",
"hhhhhhhhhhhhhhhhhhhhhh.                   X@O      .OOOOX    XooooX.    OOO@X      .OO                    .hhhhhhhhhhhhhhhhhhhhh",
"hhhhhhhhhhhhhhhhhhhhhhhh                     @O.        XO@@oOoooOOoO##X         OOX                     .hhhhhhhhhhhhhhhhhhhhhh",
"hhhhhhhhhhhhhhhhhhhhhhhhh                      .@Oo                          .OOO                       hhhhhhhhhhhhhhhhhhhhhhhh",
"hhhhhhhhhhhhhhhhhhhhhhhhhh.                       .OOOO.                 XOOOX                         hhhhhhhhhhhhhhhhhhhhhhhhh",
"hhhhhhhhhhhhhhhhhhhhhhhhhhh.                           XOOOOO@OO@@@OOOO#O.                           .hhhhhhhhhhhhhhhhhhhhhhhhhh",
"hhhhhhhhhhhhhhhhhhhhhhhhhhhhh                &75:                                 :0                hhhhhhhhhhhhhhhhhhhhhhhhhhhh",
"hhhhhhhhhhhhhhhhhhhhhhhhhhhhhh.              3q8q.#<X                         &3  -0-             .hhhhhhhhhhhhhhhhhhhhhhhhhhhhh",
"hhhhhhhhhhhhhhhhhhhhhhhhhhhhhhhh            .w285 <0.#72& O            o@ <77.&0:  q3            hhhhhhhhhhhhhhhhhhhhhhhhhhhhhhh",
"hhhhhhhhhhhhhhhhhhhhhhhhhhhhhhhhhh          ,9<w< 85 2w8w,ww7.:9.O684@899:870-.q<  2e5#        .hhhhhhhhhhhhhhhhhhhhhhhhhhhhhhhh",
"hhhhhhhhhhhhhhhhhhhhhhhhhhhhhhhhhhh.        O9wwo.w< 57383r4w ,w.:w70=8<0;0202 69, =05       .hhhhhhhhhhhhhhhhhhhhhhhhhhhhhhhhhh",
"hhhhhhhhhhhhhhhhhhhhhhhhhhhhhhhhhhhhh.        &= ,q7#q1022q<9 <w.;0,9&q<w<w487 <08. X      .hhhhhhhhhhhhhhhhhhhhhhhhhhhhhhhhhhhh",
"hhhhhhhhhhhhhhhhhhhhhhhhhhhhhhhhhhhhhhhh         X,,#0qw<7575 <qX;0,9:e8e37906 O-.       .hhhhhhhhhhhhhhhhhhhhhhhhhhhhhhhhhhhhhh",
"hhhhhhhhhhhhhhhhhhhhhhhhhhhhhhhhhhhhhhhhhh.          X-<.300, <00-90q:0q8$.>&.        .hhhhhhhhhhhhhhhhhhhhhhhhhhhhhhhhhhhhhhhhh",
"hhhhhhhhhhhhhhhhhhhhhhhhhhhhhhhhhhhhhhhhhhhhh.             .  O=O $=#              .hhhhhhhhhhhhhhhhhhhhhhhhhhhhhhhhhhhhhhhhhhhh",
"hhhhhhhhhhhhhhhhhhhhhhhhhhhhhhhhhhhhhhhhhhhhhhhh..                             ..hhhhhhhhhhhhhhhhhhhhhhhhhhhhhhhhhhhhhhhhhhhhhhh",
"hhhhhhhhhhhhhhhhhhhhhhhhhhhhhhhhhhhhhhhhhhhhhhhhhhhhh.                     ..hhhhhhhhhhhhhhhhhhhhhhhhhhhhhhhhhhhhhhhhhhhhhhhhhhh",
"hhhhhhhhhhhhhhhhhhhhhhhhhhhhhhhhhhhhhhhhhhhhhhhhhhhhhhhhhhhh.. ..  ..hhhhhhhhhhhhhhhhhhhhhhhhhhhhhhhhhhhhhhhhhhhhhhhhhhhhhhhhhhh",
"hhhhhhhhhhhhhhhhhhhhhhhhhhhhhhhhhhhhhhhhhhhhhhhhhhhhhhhhhhhhhhhhhhhhhhhhhhhhhhhhhhhhhhhhhhhhhhhhhhhhhhhhhhhhhhhhhhhhhhhhhhhhhhhh",
"hhhhhhhhhhhhhhhhhhhhhhhhhhhhhhhhhhhhhhhhhhhhhhhhhhhhhhhhhhhhhhhhhhhhhhhhhhhhhhhhhhhhhhhhhhhhhhhhhhhhhhhhhhhhhhhhhhhhhhhhhhhhhhhh"
};
