/* XPM */
static char *result[] = {
/* columns rows colors chars-per-pixel */
"64 64 251 2 ",
"   c black",
".  c #010101",
"X  c #020202",
"o  c gray1",
"O  c #040404",
"+  c gray2",
"@  c #060606",
"#  c #070707",
"$  c gray3",
"%  c #090909",
"&  c gray4",
"*  c #0B0B0B",
"=  c #0C0C0B",
"-  c #0C0C0C",
";  c #0D0D0C",
":  c gray5",
">  c #0F0E0D",
",  c #0E0E0E",
"<  c #0F0E0E",
"1  c #0F0F0E",
"2  c gray6",
"3  c #10100F",
"4  c #101010",
"5  c #111110",
"6  c #111111",
"7  c #121211",
"8  c gray7",
"9  c #131313",
"0  c #141413",
"q  c #151513",
"w  c gray8",
"e  c #151514",
"r  c #151515",
"t  c #161514",
"y  c #161615",
"u  c #171715",
"i  c #161616",
"p  c #171716",
"a  c gray9",
"s  c #181716",
"d  c #181816",
"f  c #181817",
"g  c #191817",
"h  c #181818",
"j  c #191918",
"k  c #191919",
"l  c #1A1A18",
"z  c #1A1A19",
"x  c gray10",
"c  c #1B1B1A",
"v  c #1C1B1A",
"b  c #1D1D1A",
"n  c #1C1C1B",
"m  c gray11",
"M  c #1D1D1C",
"N  c #1D1D1D",
"B  c #1E1D1C",
"V  c #1E1E1C",
"C  c #1E1E1D",
"Z  c #1F1F1D",
"A  c #1E1E1E",
"S  c gray12",
"D  c #20201E",
"F  c #21201F",
"G  c #21211F",
"H  c #202020",
"J  c #212120",
"K  c gray13",
"L  c #222220",
"P  c #222221",
"I  c #232221",
"U  c #232321",
"Y  c #222222",
"T  c #232323",
"R  c #242422",
"E  c #242423",
"W  c gray14",
"Q  c #252524",
"!  c #252525",
"~  c #262624",
"^  c #272725",
"/  c gray15",
"(  c #272726",
")  c #272727",
"_  c #282826",
"`  c #282827",
"'  c #292827",
"]  c #282828",
"[  c #292828",
"{  c #292928",
"}  c gray16",
"|  c #2A2928",
" . c #2A2A29",
".. c #2A2A2A",
"X. c #2B2B2A",
"o. c gray17",
"O. c #2E2D2B",
"+. c #2E2E2B",
"@. c #2C2C2C",
"#. c #2D2D2D",
"$. c #2E2E2C",
"%. c #2F2F2D",
"&. c gray18",
"*. c #2F2F2F",
"=. c #30302E",
"-. c #30302F",
";. c #31302F",
":. c gray19",
">. c #313130",
",. c #323130",
"<. c #323231",
"1. c #333231",
"2. c #323232",
"3. c gray20",
"4. c #343434",
"5. c #353534",
"6. c #353535",
"7. c gray21",
"8. c #373737",
"9. c gray22",
"0. c #3A3A3A",
"q. c gray23",
"w. c gray24",
"e. c #3F3F3F",
"r. c gray25",
"t. c #414141",
"y. c gray26",
"u. c #434343",
"i. c #444444",
"p. c gray27",
"a. c #464646",
"s. c gray28",
"d. c #484848",
"f. c #494949",
"g. c gray29",
"h. c #4B4B4B",
"j. c #4C4C4C",
"k. c gray30",
"l. c #4E4E4E",
"z. c gray31",
"x. c #505050",
"c. c #515151",
"v. c gray32",
"b. c #535353",
"n. c gray33",
"m. c #555555",
"M. c #565655",
"N. c #565656",
"B. c gray34",
"V. c #585858",
"C. c gray35",
"Z. c #5A5A5A",
"A. c #5B5B5B",
"S. c gray36",
"D. c #5D5D5D",
"F. c gray37",
"G. c #5F5F5F",
"H. c #606060",
"J. c gray38",
"K. c #626262",
"L. c gray39",
"P. c #646464",
"I. c #656565",
"U. c gray40",
"Y. c #676767",
"T. c #686868",
"R. c DimGray",
"E. c #6A6A6A",
"W. c gray42",
"Q. c #6C6C6C",
"!. c #6D6D6D",
"~. c #6E6E6D",
"^. c gray43",
"/. c #6F6F6F",
"(. c gray44",
"). c #717171",
"_. c #727272",
"`. c gray45",
"'. c #747474",
"]. c gray46",
"[. c #767676",
"{. c #777777",
"}. c gray47",
"|. c #797979",
" X c gray48",
".X c #7B7B7B",
"XX c gray49",
"oX c #7E7E7E",
"OX c gray50",
"+X c #818181",
"@X c gray51",
"#X c #838383",
"$X c gray52",
"%X c #868686",
"&X c #888888",
"*X c #898989",
"=X c gray54",
"-X c gray55",
";X c #8D8D8D",
":X c gray56",
">X c #929292",
",X c gray58",
"<X c #979797",
"1X c #989898",
"2X c gray62",
"3X c #9F9F9F",
"4X c #A0A09F",
"5X c #A0A0A0",
"6X c gray63",
"7X c #A7A7A7",
"8X c gray66",
"9X c #A9A9A9",
"0X c #AAAAAA",
"qX c #ACACAC",
"wX c #AFAFAF",
"eX c #B4B4B4",
"rX c #B6B6B6",
"tX c #B7B7B7",
"yX c gray72",
"uX c gray73",
"iX c #BBBBBB",
"pX c #BCBCBC",
"aX c gray74",
"sX c gray",
"dX c gray75",
"fX c #C0C0C0",
"gX c #C1C1C1",
"hX c gray76",
"jX c #CACACA",
"kX c #CBCBCB",
"lX c gray82",
"zX c #D5D5D5",
"xX c #D7D7D7",
"cX c gray85",
"vX c gray86",
"bX c gainsboro",
"nX c gray89",
"mX c #E4E4E4",
"MX c gray91",
"NX c gray92",
"BX c #EFEFEF",
"VX c #F1F1F1",
"CX c #F3F3F3",
"ZX c #F6F6F6",
"AX c gray97",
"SX c #F8F8F8",
"DX c gray98",
"FX c gray99",
"GX c #FEFEFE",
"HX c white",
"JX c None",
/* pixels */
"JXJXJXJXJXJXJXJXJXJXJXJXJXJXJXJXJXJXJXJXJXJXJXJXJXJXJXJXJXJXJXJXJXJXJXJXJXJXJXJXJXJXJXJXJXJXJXJXJXJXJXJXJXJXJXJXJXJXJXJXJXJXJXJX",
"JXJXJXJXJXJXJXJXJXJXJXJXJXJXJXJXJXJXJXJXJXJXJXJXJXJXJXJXJXJXJXO + o JXJXJXJXJXJXJXJXJXJXJXJXJXJXJXJXJXJXJXJXJXJXJXJXJXJXJXJXJXJX",
"JXJXJXJXJXJXJXJXJXJXJXJXJXJXJXJXJXJXJXJXJXJXJXJXO o .                       X o JXJXJXJXJXJXJXJXJXJXJXJXJXJXJXJXJXJXJXJXJXJXJXJX",
"JXJXJXJXJXJXJXJXJXJXJXJXJXJXJXJXJXJXJXJXJXo .         K @.x.8.f.d.a.a./ ) $         o JXJXJXJXJXJXJXJXJXJXJXJXJXJXJXJXJXJXJXJXJX",
"JXJXJXJXJXJXJXJXJXJXJXJXJXJXJXJXJXJXJXX           v.W.[.m.T.[./.R.A.F.] >XH./.)         . o JXJXJXJXJXJXJXJXJXJXJXJXJXJXJXJXJXJX",
"JXJXJXJXJXJXJXJXJXJXJXJXJXJXJXJXJXX               F.+XE.E.t.U.c.0.6.c.W `.m.+X6               o JXJXJXJXJXJXJXJXJXJXJXJXJXJXJXJX",
"JXJXJXJXJXJXJXJXJXJXJXJXJXJXJXo       X o         Y ! $                 o a u.o         . X     . JXJXJXJXJXJXJXJXJXJXJXJXJXJXJX",
"JXJXJXJXJXJXJXJXJXJXJXJXJXJX.         2.q.        o * * & * % % % % * & & & +           #.t.        o JXJXJXJXJXJXJXJXJXJXJXJXJX",
"JXJXJXJXJXJXJXJXJXJXJXJXO                   O * * #     X & - & & - * O     O & % @                   . JXJXJXJXJXJXJXJXJXJXJXJX",
"JXJXJXJXJXJXJXJXJXJXJXo   - 7.          # - #   + * * 4 9 & - & & - * 4 8 * & #   O % $             r   . JXJXJXJXJXJXJXJXJXJXJX",
"JXJXJXJXJXJXJXJXJXJXo   w A.`.&.    O - +   * * 4 * 4 2 * & : - - : * * : w - 2 : * X X & @       t.T.*.    JXJXJXJXJXJXJXJXJXJX",
"JXJXJXJXJXJXJXJXJXO   4 #X`.V.6.  & $   * 2 - 6 * : 4 ^ O.4 k w w h w - * 2 8 - 8 : 2 * . O & .   P.!./.x.    JXJXJXJXJXJXJXJXJX",
"JXJXJXJXJXJXJXJXo   } S.h.!.a X : X @ : : 2 - 4 * 6 * U +.* : * * : & r : * 6 : 4 , 6 : : $   & O   h. Xz.l.  . JXJXJXJXJXJXJXJX",
"JXJXJXJXJXJXJXJX  Y r.h.w.: O -   * , 2 - 2 , - 4 - * [ 5.> : - * : % * 6 : & 4 * 6 4 , 4 , -   @ @ X u.XX$X]   . JXJXJXJXJXJXJX",
"JXJXJXJXJXJXJX. : ^.|.u.$ O &   , , , , : , 2 - 4 - 8 - * - x i r x 2 - * 6 % 2 - , * 4 2 2 , - o @ # X s.P.n.]   X JXJXJXJXJXJX",
"JXJXJXJXJXJXX o Q.S.J.8 o *   , , , , , , : 2 : , 2 , * 9 : : - * : * a * - 6 * 2 , - : , 2 2 2 : O @ + + o.c.L.#   JXJXJXJXJXJX",
"JXJXJXJXJXO   7.L.OX2.  :   , , q >.s | ~ j =.t y C * 6 : & : - * : % * 9 * 6 : 4 : : , : : 0 n 2 - X $ o 4 &.c.I.  . JXJXJXJXJX",
"JXJXJXJXJX. , @X$X7.  :   - , , R J f ' 4 ^ M u >.L : 6 * * h h a x - * : 4 * 2 2 2 , : : : j <.c , -   &   .. X).h   o JXJXJXJX",
"JXJXJXJXo   e.Q.R.& $ + $ , , : , , , , , : * , 6 - 6 * : 9 - - - : 4 4 * 4 * 2 : : 6 , : - , B 2 , : * . &   l.I.(.O   JXJXJXJX",
"JXJXJXJX  r - 3.&.  - X , , , , , , , , - - 2 4 2 - 2 & 8 * * - - - & 4 , - , 2 : 2 : 2 2 : l -.4 : , : @ @ O x ).Y     o JXJXJX",
"JXJXJXO   A L.).. -   - - : , , , , , : - 4 , , , , - 4 * * 9 h a a * * 4 - 2 , : , , : 2 2 : U g : , , -   &             JXJXJX",
"JXJXJX.       +   * + 2 , : : - , , : - 2 2 , - , , - 4 * w - - - - w * , : 2 : , , , , : 2 j I , : - - : % + +           O JXJX",
"JXJXJX          *   - - 2 2 2 , : 7XaXsXsXsXsXpXaXdXdXiXqX: & - - * * 6 K.-X=X&X=X=X=X=X=X*X;X>XC : , 2 2 :   *           . JXJX",
"JXJXo           * o 4 2 - - , 2 2 T.HXHXHXHXHXHXHXHXHXHXHX(.2 a a 8 * 2.tXtXyXtXtXtXtXyXtXtXtX~.2 , , - * : $ % .           JXJX",
"JXJXX         + # - - - 4 4 : - - 2 kXHXHXHXHXHXHXHXHXHXHXBXS - - , 8 ,XtXtXyXtXtXtXtXtXtXtXqX>., * - 2 4 : *   &           JXJX",
"JXJX          *   * 6 4 - * , 4 , - e.GXHXHXHXHXHXHXHXHXHXHX<X- * & z.tXtXyXtXtXyXtXyXyXtXtXM.Z : 4 4 * * i 6   *           X JX",
"JXJX          * . w : * : 8 , * * 4 2 6XHXHXHXHXHXHXHXHXHXHXFXe.i h 8XyXtXyXtXyXtXtXtXtXtX,X4 4 , * : 8 - O X % *           X JX",
"JXo           * & - * , 8 * * 4 6 * * / VXHXHXHXHXHXHXHXHXHXHXhX- !.yXtXtXtXtXtXtXtXtXtXtX9.* * 4 6 * * : :   , 2 o           JX",
"JXO         . & & % * 8 * * 6 , & * 9 : {.HXHXHXHXHXHXHXHXHXHXHX.XeXtXyXtXyXyXyXtXtXyXtX|.: 8 - & : 6 & $ % , - : & & & & O   JX",
"JX.         # O - : h - * 2 6 * : * o , 4 cXHXHXHXHXHXHXHXHXHXHXZXuXtXtXyXtXtXtXtXtXtXwXK * - r * * : - : % - : : : : : : @   JX",
"JXX         &   % & 6 & & r & - @ $ * * * j.HXHXHXHXHXHXHXHXHXHXHXvXtXtXtXtXtXtXtXtXtXS.r : & - 4 * % $ % - * * : p p ; * +   JX",
"JXo         *   $ - * % * r $ # , 2 w w w w rXHXHXHXHXHXHXHXHXHXHXFXfXtXtXyXtXtXtXtX5X: , 6 * : 8 $ - : , w w w k X.X.f w %   JX",
"JXO         *   $ - * % * - : $ * - - - - - o.AXHXHXHXHXHXHXHXHXHXHXMXtXtXtXtXtXtXtXe.% : 6 * : - - # - - - - - 9  . .7 - +   X ",
"JXX         &   % % 4 & & $ $ - Y o.9 * * * * %XHXHXHXHXHXHXHXHXHXHXHXjXtXyXtXtXyX;X- - w : & - + # - * * * * * < b b : * +   JX",
"JXX         # o - : h - *   $ 6 N K r 6 6 6 6 x mXHXHXHXHXHXHXHXHXHXHXCXyXtXtXyXeX) * 4 4 * *   , 2 6 6 6 6 6 6 p X.X.y 6 $   JX",
"JXo         X % % % - 6 * & % * - - - - - - - - F.HXHXHXHXHXHXHXHXHXHXHXxXtXtXtXY.- 6 2 * - &   c X., - - - - - - - - - - @   JX",
"JXo           * * - * 2 6 * : @ * % % % % % % % % gXHXHXHXHXHXHXHXHXHXHXDXaXtX9Xa 2 - * 2 6 X , - 1 % % % % % % % % % % % O   JX",
"JXJX          * . w - * , 8 : : @ * % * 2 2 2 2 2 0.FXHXHXHXHXHXHXHXHXHXHXnXtXf., , 2 2 - * , * & - 2 2 2 2 2 2 2 2 2 2 2 $ . JX",
"JXJX        . *   * 6 4 - - 2 2 J = @ * @ : 5 : - - 1XHXHXHXHXHXHXHXHXHXHXHX2X2 : : , , 2 2 : & & , * - - - - - - - - - - + X JX",
"JXJXX w G.).T + @ - - : 4 2 - * G ( , + * , ;.a % : h NXHXHXHXHXHXHXHXHXHXGXr., , , : : : , 2 * : * * & $ $ $ $ $ $ $ $ $ O O JX",
"JXJXo # T._.u.  * O 4 , - - 2 , e p : , # , p , : , , (.HXHXHXHXHXHXHXHXHX3X: , , , , , : : - : : & * : % 6 % % % % % % % O JXJX",
"JXJXJX  f.Q.K.@ -   - : 2 2 2 3 <.e , , , , , , , , 2 , lXHXHXHXHXHXHXHXBXY , : , , , : , , , , * * -   % 2   @           . JXJX",
"JXJXJX. r % 4.w.. * @ 2 , : - : L F : 2 , , , , , 2 : , a.HXHXHXHXHXHXHX[.2 , : , , : : , , , , - &     : * + @ 8 i       X JXJX",
"JXJXJXX   i.].N.. -   - : , 2 0 Q , - : 2 , , : , 2 - 4 * 0XHXHXHXHXHXzX9 - 2 : , : , , , , , , 5     & ,   -   g.(.W.+   JXJXJX",
"JXJXJXJX  2.Q..X:.. * O , , , 2 $.R : - : 2 , : 2 , : , 2 T CXHXHXHXHXg.6 * 4 , * , , , , : : e 3.D & , $ # + a W._.U.  X JXJXJX",
"JXJXJXJXo # T.P.C.% % O & , : , z 7 , : : : , 2 r P 4 - 8 : oXHXHXHXwXw & 2 * 2 : 4 , , , : , 1 E 3 : :   -   s.J. XA   JXJXJXJX",
"JXJXJXJXJX  m {.[.h.  :   : , 0 1.Z , , , , * 2 e ` 6 - * 6 x bXHXSX:.* & 6 c n 2 0 3 , : , , , 2 : : . - . S ].[.d.  X JXJXJXJX",
"JXJXJXJXJXo X _.m.Q.*.. -   , , f c , , , : : , * 6 - 9 * * & C.HX$X- * 9 v %.M Q <.d { V z ,.7 : , O $ + : J.T.&X8   JXJXJXJXJX",
"JXJXJXJXJXJX. . @XH.C.m O & . , , , , , , - 2 4 * 6 & * i - & l 4X6 - 9 , * 6 - v 6 Z ( 3 _ n : : O @ # o C.`.D...  o JXJXJXJXJX",
"JXJXJXJXJXJXJX  } C.'.P.$ + & . , , , , , : 2 * 4 * 8 * - a 6 % $ , k - * 4 : - , 2 * 2 , : - : O @ $   a.b.$Xh.  . JXJXJXJXJXJX",
"JXJXJXJXJXJXJXX   y.+XI.A.  + *   - , , - , 4 * 4 * 2 2 & - & : , & : % : 8 - 2 * 2 : , : : - X # #   0.XXXXk.$   JXJXJXJXJXJXJX",
"JXJXJXJXJXJXJXJX.   B.^.#     o : . $ , - 2 - 2 - 4 * 4 4 - % $ $ $ - - 9 * : 2 - 2 2 * , &   & @   p.).z.L.:   JXJXJXJXJXJXJXJX",
"JXJXJXJXJXJXJXJXJXX   @           - # . - 4 - 4 * 6 - & : h , % % - a 4 * * 8 - 2 * 2 - o O - X     T `.J.@   X JXJXJXJXJXJXJXJX",
"JXJXJXJXJXJXJXJXJXJX.               @ - o X - , 2 * 9 * % : - 2 4 - : % * 9 * * 4 * O . * $           } 2   o JXJXJXJXJXJXJXJXJX",
"JXJXJXJXJXJXJXJXJXJXJXX                 $ * +   $ * * w - - % $ $ $ * * r - * &   X * &                   o JXJXJXJXJXJXJXJXJXJX",
"JXJXJXJXJXJXJXJXJXJXJXJXX                   # & * O   . # - % $ $ $ * % .   X & * $                     + JXJXJXJXJXJXJXJXJXJXJX",
"JXJXJXJXJXJXJXJXJXJXJXJXJXO                       # & & * % * * * * % * & & %                       . JXJXJXJXJXJXJXJXJXJXJXJXJX",
"JXJXJXJXJXJXJXJXJXJXJXJXJXJXJX.             H .X6.x o         . .             S . F.-             o JXJXJXJXJXJXJXJXJXJXJXJXJXJX",
"JXJXJXJXJXJXJXJXJXJXJXJXJXJXJXJXO .         S.!.&.).N {.r.b.S *.# q.S y.3.^.k.n.H 0.Z.@       . JXJXJXJXJXJXJXJXJXJXJXJXJXJXJXJX",
"JXJXJXJXJXJXJXJXJXJXJXJXJXJXJXJXJXJXo .     ) G.i  Xs.W.G..Xd.).A }.B.E.T.[.'.:.'.& u.    . JXJXJXJXJXJXJXJXJXJXJXJXJXJXJXJXJXJX",
"JXJXJXJXJXJXJXJXJXJXJXJXJXJXJXJXJXJXJXJXO X     O T o.E.f.oX@.!.q.|.H.:XP.x.f.+ :     o JXJXJXJXJXJXJXJXJXJXJXJXJXJXJXJXJXJXJXJX",
"JXJXJXJXJXJXJXJXJXJXJXJXJXJXJXJXJXJXJXJXJXJXJXo o         .   2 @ 6 # .       . o JXJXJXJXJXJXJXJXJXJXJXJXJXJXJXJXJXJXJXJXJXJXJX",
"JXJXJXJXJXJXJXJXJXJXJXJXJXJXJXJXJXJXJXJXJXJXJXJXJXJXJXJXo o X . X X o o o JXJXJXJXJXJXJXJXJXJXJXJXJXJXJXJXJXJXJXJXJXJXJXJXJXJXJX",
"JXJXJXJXJXJXJXJXJXJXJXJXJXJXJXJXJXJXJXJXJXJXJXJXJXJXJXJXJXJXJXJXJXJXJXJXJXJXJXJXJXJXJXJXJXJXJXJXJXJXJXJXJXJXJXJXJXJXJXJXJXJXJXJX"
};
