/* XPM */
static char *result[] = {
/* columns rows colors chars-per-pixel */
"16 16 77 1 ",
"  c black",
". c #010101",
"X c #020202",
"o c gray1",
"O c #040404",
"+ c gray2",
"@ c #060606",
"# c gray3",
"$ c #090909",
"% c gray4",
"& c #0B0B0B",
"* c #0C0C0C",
"= c gray5",
"- c #0E0E0E",
"; c gray6",
": c #101010",
"> c #111111",
", c gray7",
"< c #131312",
"1 c #131313",
"2 c #141413",
"3 c gray8",
"4 c #151515",
"5 c #161515",
"6 c #161615",
"7 c #161616",
"8 c #171716",
"9 c gray9",
"0 c #181717",
"q c #181817",
"w c gray10",
"e c #1B1B1B",
"r c gray11",
"t c #1D1D1D",
"y c #1E1E1E",
"u c gray12",
"i c #202020",
"p c #222222",
"a c #232323",
"s c #252525",
"d c gray15",
"f c #272727",
"g c gray16",
"h c #2A2A2A",
"j c gray18",
"k c #2F2F2F",
"l c gray19",
"z c gray20",
"x c gray21",
"c c gray22",
"v c #3C3C3C",
"b c gray24",
"n c gray27",
"m c gray29",
"M c #4B4B4B",
"N c #515151",
"B c #555555",
"V c #575756",
"C c gray34",
"Z c #6A6A6A",
"A c #767676",
"S c gray49",
"D c #9D9D9D",
"F c #A5A5A5",
"G c #A9A9A9",
"H c #AFAFAF",
"J c #B7B7B7",
"K c #B9B9B9",
"L c #BBBBBB",
"P c gray78",
"I c gainsboro",
"U c #F3F3F3",
"Y c gray96",
"T c gray99",
"R c #FEFEFE",
"E c white",
"W c None",
/* pixels */
"WWWWWWWewWWWWWWW",
"WWWW+Ojzsx $WWWW",
"WWWkX#*;=&#XaWWW",
"WWv7*-:<-=-*3bWW",
"Wah*06<----5*rgW",
"W;$-NAAj>BCV;# W",
".X&-nRELBJJZ-%o.",
".o*=*GEEPJF7*=<@",
".o*%1dUEYKm&;=q@",
"o,&=-;SEEH-**&&@",
"Wb$-4-3ITv--##9W",
"Wcf*8-,BD23,:ibW",
"WWM&*---7->-1mWW",
"WWW X#&**&#X*;WW",
"WWWW.ujhply WWWW",
"WWWWWW9ahtWWWWWW"
};
